# xmcd CD database file
#
# Track frame offsets:
#	150
#	29715
#	56457
#	82091
#	114352
#	137319
#	153643
#	173107
#	196988
#	211606
#	247451
#
# Disc length: 3521 seconds
#
# Revision: 0
# Processed by: cddbd v1.5.1PL0 Copyright (c) Steve Scherf et al.
# Submitted via: CDex 1.51
#
DISCID=970dbf0b
DTITLE=Brian Bromberg - Wood2
DYEAR=2005
DGENRE=Jazz
TTITLE0=Caravan
TTITLE1=Bolivia
TTITLE2=Blue Bossa
TTITLE3=Witch Hunt
TTITLE4=I'll Remember April
TTITLE5=Carry On Wayward Son
TTITLE6=Four Brothers
TTITLE7=Butterfly
TTITLE8=Shining Star
TTITLE9=Pensativa
TTITLE10=Let'Em in
EXTD=YEAR: 2005
EXTT0=
EXTT1=
EXTT2=
EXTT3=
EXTT4=
EXTT5=
EXTT6=
EXTT7=
EXTT8=
EXTT9=
EXTT10=
PLAYORDER=
